<svg xmlns="http://www.w3.org/2000/svg" id="Layer_1" data-name="Layer 1" viewBox="0 0 139 43.6"><defs><style>.cls-1{fill:#461149;}.cls-2{fill:#ed208a;}.cls-3{fill:#7a2676;}.cls-4{fill:#f1668a;}.cls-5{fill:#b11f75;}.cls-6{fill:#85277f;}.cls-7{fill:none;stroke:#1e5552;stroke-miterlimit:10;stroke-width:3.91px;}</style></defs><g id="Pixelar"><g id="Pixelar-2" data-name="Pixelar"><path class="cls-1" d="M47.4,7.7h5.5a6.67,6.67,0,0,1,5.3,2.6,9.06,9.06,0,0,1,2.2,6.2,9.06,9.06,0,0,1-2.2,6.2,6.82,6.82,0,0,1-5.3,2.6H49.4v9.1H47.3V7.7Zm2.2,2.2V23h3.5a4.6,4.6,0,0,0,3.8-1.9,6.8,6.8,0,0,0,1.6-4.6,6.62,6.62,0,0,0-1.6-4.6A4.87,4.87,0,0,0,53.1,10H49.6Z"></path><path class="cls-1" d="M63.8,17.9h2.1V34.3H63.8V17.9Z"></path><path class="cls-1" d="M70.8,17l5.1,7L81,17l1.7,1.3-5.4,7.5,5.4,7.5L81,34.6l-5.1-7-5.1,7-1.6-1.3,5.4-7.5-5.4-7.5,1.4-1.1Z"></path><path class="cls-1" d="M91.7,17.4A6.21,6.21,0,0,1,96,19a8.52,8.52,0,0,1,2.7,4.2l.3.9L87.2,29.8a5.24,5.24,0,0,0,1.9,2,4.51,4.51,0,0,0,2.5.7,4.77,4.77,0,0,0,3.3-1.3l.3-.2,1.4,1.7-.3.2a6.41,6.41,0,0,1-4.7,1.9,6.67,6.67,0,0,1-5.3-2.6,9,9,0,0,1-2.2-6.1,9.06,9.06,0,0,1,2.2-6.2A7.24,7.24,0,0,1,91.7,17.4Zm0,2.3a4.73,4.73,0,0,0-3.8,1.9,6.8,6.8,0,0,0-1.6,4.6,11.14,11.14,0,0,0,.2,1.7l9.9-4.8a5.88,5.88,0,0,0-2-2.4A3.94,3.94,0,0,0,91.7,19.7Z"></path><path class="cls-1" d="M102.3,6.6h2.1V34.2h-2.1V6.6Z"></path><path class="cls-2" d="M114.3,7.7h1.9l7,26.3-2,.6-2.1-7.9h-7.7l-2.1,7.9-2-.6,6.9-26.1Zm.9,4.6L112,24.5h6.5Z"></path><path class="cls-2" d="M126,7.7h5.5a6.67,6.67,0,0,1,5.3,2.6,9.06,9.06,0,0,1,2.2,6.2,9,9,0,0,1-1.3,4.9,8,8,0,0,1-3.4,3.2l3.8,9.2-1.9.9-3.9-9.5H128v9.1h-2.1V7.7Zm2.1,2.2V23h3.5a4.6,4.6,0,0,0,3.8-1.9,6.8,6.8,0,0,0,1.6-4.6,6.62,6.62,0,0,0-1.6-4.6,4.87,4.87,0,0,0-3.8-1.9h-3.5Z"></path><rect class="cls-1" x="63.79" y="12.05" width="2.1" height="2.1" transform="translate(9.73 49.69) rotate(-45)"></rect></g><g id="Logo"><polygon class="cls-3" points="19.7 9.3 23.5 0 22.8 5.8 19.7 9.3"></polygon><polygon class="cls-1" points="21 15.7 25.1 19.1 29.9 17.2 27 16.9 31.3 15.2 31.8 13.5 28.6 11.2 24.9 11.2 21 15.7"></polygon><polygon class="cls-4" points="22 25.4 9.9 26.6 6.8 40.7 6.8 43.6 7.3 41.7 11.6 28.7 22 25.4"></polygon><polygon class="cls-1" points="9.9 26.6 6.8 40.7 6.8 26.8 13.1 19.9 9.9 26.6"></polygon><polygon class="cls-5" points="13.1 19.9 8 8.3 11.7 5.6 13.1 19.9"></polygon><polygon class="cls-6" points="0 2.1 8 8.3 11.7 5.6 0 2.1"></polygon><polygon class="cls-2" points="13.1 19.9 22 25.4 9.9 26.6 13.1 19.9"></polygon><polygon class="cls-4" points="31.3 15.2 31.8 13.5 32.4 16.7 31.4 17.3 29 17.1 27 16.9 31.3 15.2"></polygon><polygon class="cls-3" points="20.9 15.6 22 25.4 22 25.4 26.3 18.6 25.1 19.1 20.9 15.6"></polygon><path class="cls-7" d="M13.1,19.9"></path><path class="cls-7" d="M21,15.7"></path><polygon class="cls-3" points="32.3 16.5 38.8 23.4 38.7 23.5 31.4 17.3 32.3 16.5"></polygon><polygon class="cls-5" points="13.1 19.9 22 25.4 21 15.7 13.1 19.9"></polygon><polygon class="cls-2" points="13 19.5 11.7 5.6 21 15.7 13.1 19.9 13 19.5"></polygon><polygon class="cls-5" points="19.3 13.8 19.7 9.3 22.8 5.8 24.2 11.9 21 15.7 19.3 13.8"></polygon></g></g></svg>