<svg xmlns="http://www.w3.org/2000/svg" xmlns:xlink="http://www.w3.org/1999/xlink" width="295.5" viewBox="0 0 295.5 295.5" height="295.5"><defs><g id="b"><path d="M 1.6875 -14.5625 C 1.6875 -21.34375 3.117188 -26.390625 5.984375 -29.703125 C 8.859375 -33.015625 13.15625 -34.671875 18.875 -34.671875 C 20.820312 -34.671875 22.351562 -34.550781 23.46875 -34.3125 L 23.46875 -28.53125 C 22.070312 -28.84375 20.695312 -29 19.34375 -29 C 16.851562 -29 14.820312 -28.625 13.25 -27.875 C 11.6875 -27.125 10.515625 -26.015625 9.734375 -24.546875 C 8.953125 -23.078125 8.488281 -20.988281 8.34375 -18.28125 L 8.65625 -18.28125 C 10.195312 -20.9375 12.671875 -22.265625 16.078125 -22.265625 C 19.140625 -22.265625 21.535156 -21.300781 23.265625 -19.375 C 25.003906 -17.457031 25.875 -14.804688 25.875 -11.421875 C 25.875 -7.765625 24.84375 -4.867188 22.78125 -2.734375 C 20.71875 -0.597656 17.859375 0.46875 14.203125 0.46875 C 11.671875 0.46875 9.460938 -0.113281 7.578125 -1.28125 C 5.703125 -2.457031 4.25 -4.171875 3.21875 -6.421875 C 2.195312 -8.671875 1.6875 -11.382812 1.6875 -14.5625 Z M 14.0625 -5.328125 C 15.613281 -5.328125 16.800781 -5.84375 17.625 -6.875 C 18.457031 -7.914062 18.875 -9.398438 18.875 -11.328125 C 18.875 -12.992188 18.484375 -14.304688 17.703125 -15.265625 C 16.929688 -16.234375 15.765625 -16.71875 14.203125 -16.71875 C 12.734375 -16.71875 11.476562 -16.238281 10.4375 -15.28125 C 9.40625 -14.332031 8.890625 -13.222656 8.890625 -11.953125 C 8.890625 -10.097656 9.375 -8.53125 10.34375 -7.25 C 11.320312 -5.96875 12.5625 -5.328125 14.0625 -5.328125 Z M 14.0625 -5.328125"></path></g><g id="c"><path d="M 26.65625 -7.109375 L 22.53125 -7.109375 L 22.53125 0 L 15.453125 0 L 15.453125 -7.109375 L 0.828125 -7.109375 L 0.828125 -12.140625 L 15.84375 -34.265625 L 22.53125 -34.265625 L 22.53125 -12.734375 L 26.65625 -12.734375 Z M 15.453125 -12.734375 L 15.453125 -18.546875 C 15.453125 -19.515625 15.488281 -20.921875 15.5625 -22.765625 C 15.644531 -24.609375 15.707031 -25.675781 15.75 -25.96875 L 15.5625 -25.96875 C 14.988281 -24.6875 14.296875 -23.4375 13.484375 -22.21875 L 7.203125 -12.734375 Z M 15.453125 -12.734375"></path></g><g id="d"><path d="M 7.390625 -24 C 7.390625 -22.019531 7.5625 -20.539062 7.90625 -19.5625 C 8.257812 -18.582031 8.828125 -18.09375 9.609375 -18.09375 C 11.109375 -18.09375 11.859375 -20.0625 11.859375 -24 C 11.859375 -27.90625 11.109375 -29.859375 9.609375 -29.859375 C 8.828125 -29.859375 8.257812 -29.378906 7.90625 -28.421875 C 7.5625 -27.460938 7.390625 -25.988281 7.390625 -24 Z M 17.765625 -24.046875 C 17.765625 -20.453125 17.066406 -17.753906 15.671875 -15.953125 C 14.285156 -14.148438 12.25 -13.25 9.5625 -13.25 C 6.988281 -13.25 5 -14.171875 3.59375 -16.015625 C 2.1875 -17.867188 1.484375 -20.546875 1.484375 -24.046875 C 1.484375 -31.191406 4.175781 -34.765625 9.5625 -34.765625 C 12.207031 -34.765625 14.234375 -33.835938 15.640625 -31.984375 C 17.054688 -30.128906 17.765625 -27.484375 17.765625 -24.046875 Z M 33.890625 -34.265625 L 14.890625 0 L 9.265625 0 L 28.265625 -34.265625 Z M 31.390625 -10.3125 C 31.390625 -8.332031 31.5625 -6.851562 31.90625 -5.875 C 32.257812 -4.894531 32.828125 -4.40625 33.609375 -4.40625 C 35.109375 -4.40625 35.859375 -6.375 35.859375 -10.3125 C 35.859375 -14.21875 35.109375 -16.171875 33.609375 -16.171875 C 32.828125 -16.171875 32.257812 -15.691406 31.90625 -14.734375 C 31.5625 -13.773438 31.390625 -12.300781 31.390625 -10.3125 Z M 41.765625 -10.359375 C 41.765625 -6.785156 41.066406 -4.09375 39.671875 -2.28125 C 38.285156 -0.476562 36.25 0.421875 33.5625 0.421875 C 30.988281 0.421875 29 -0.503906 27.59375 -2.359375 C 26.1875 -4.210938 25.484375 -6.878906 25.484375 -10.359375 C 25.484375 -17.503906 28.175781 -21.078125 33.5625 -21.078125 C 36.207031 -21.078125 38.234375 -20.148438 39.640625 -18.296875 C 41.054688 -16.441406 41.765625 -13.796875 41.765625 -10.359375 Z M 41.765625 -10.359375"></path></g><clipPath id="a"><path d="M 89.320312 101 L 266.320312 101 L 266.320312 265.800781 L 89.320312 265.800781 Z M 89.320312 101"></path></clipPath></defs><path fill="#7D0078" d="M 168.019531 178.746094 C 163.746094 176.761719 158.84375 177.386719 155.234375 180.398438 L 154.277344 181.171875 L 153.320312 180.398438 C 149.707031 177.386719 144.808594 176.761719 140.535156 178.746094 C 136.257812 180.730469 133.605469 184.878906 133.605469 189.582031 C 133.605469 193.144531 135.191406 196.488281 137.917969 198.765625 L 152.359375 210.742188 C 152.914062 211.183594 153.578125 211.441406 154.238281 211.441406 C 154.902344 211.441406 155.566406 211.21875 156.117188 210.742188 L 170.5625 198.765625 C 173.324219 196.488281 174.871094 193.144531 174.871094 189.582031 C 174.945312 184.878906 172.292969 180.730469 168.019531 178.746094 Z M 166.839844 194.285156 L 154.3125 204.71875 L 141.785156 194.285156 C 140.386719 193.109375 139.574219 191.417969 139.574219 189.621094 C 139.574219 187.195312 140.902344 185.136719 143.074219 184.109375 C 143.921875 183.703125 144.808594 183.519531 145.691406 183.519531 C 147.054688 183.519531 148.417969 184 149.558594 184.953125 L 152.398438 187.304688 C 153.503906 188.222656 155.085938 188.222656 156.15625 187.304688 L 158.992188 184.953125 C 160.871094 183.410156 163.304688 183.082031 165.476562 184.109375 C 167.6875 185.136719 168.976562 187.195312 168.976562 189.621094 C 169.050781 191.417969 168.242188 193.109375 166.839844 194.285156 Z M 166.839844 194.285156"></path><g clip-path="url(#a)"><path fill="#7D0078" d="M 264.699219 103.660156 L 261.75 102.191406 C 260.425781 101.527344 258.949219 101.199219 257.476562 101.199219 C 256.003906 101.199219 254.53125 101.527344 253.203125 102.191406 C 252.207031 102.703125 250.957031 102.703125 249.960938 102.191406 C 248.632812 101.527344 247.160156 101.199219 245.6875 101.199219 C 244.214844 101.199219 242.738281 101.527344 241.414062 102.191406 C 240.417969 102.703125 239.164062 102.703125 238.171875 102.191406 C 236.84375 101.527344 235.371094 101.199219 233.898438 101.199219 C 232.421875 101.199219 230.949219 101.527344 229.621094 102.191406 C 228.628906 102.703125 227.375 102.703125 226.378906 102.191406 C 225.054688 101.527344 223.582031 101.199219 222.105469 101.199219 C 220.632812 101.199219 219.160156 101.527344 217.832031 102.191406 C 216.839844 102.703125 215.585938 102.703125 214.589844 102.191406 C 213.265625 101.527344 211.789062 101.199219 210.316406 101.199219 C 208.84375 101.199219 207.367188 101.527344 206.042969 102.191406 C 205.046875 102.703125 203.796875 102.703125 202.800781 102.191406 C 201.472656 101.527344 200 101.199219 198.527344 101.199219 C 197.050781 101.199219 195.578125 101.527344 194.253906 102.191406 C 193.257812 102.703125 192.003906 102.703125 191.011719 102.191406 C 188.355469 100.867188 185.152344 100.867188 182.460938 102.191406 L 179.515625 103.660156 C 178.519531 104.171875 177.894531 105.164062 177.894531 106.304688 L 177.894531 133.523438 L 172 133.523438 L 172 127.648438 C 172 119.527344 165.402344 112.953125 157.261719 112.953125 C 155.160156 112.953125 153.171875 113.394531 151.367188 114.164062 C 149.523438 113.359375 147.535156 112.953125 145.46875 112.953125 C 137.328125 112.953125 130.734375 119.527344 130.734375 127.648438 L 130.734375 133.523438 L 107.152344 133.523438 C 105.679688 133.523438 104.425781 134.589844 104.242188 136.058594 L 89.503906 238.917969 C 89.320312 240.3125 90.128906 241.671875 91.492188 242.113281 L 109.179688 247.992188 C 109.472656 248.101562 109.804688 248.136719 110.101562 248.136719 L 176.9375 248.136719 L 174.984375 262.429688 C 174.871094 263.273438 175.128906 264.117188 175.683594 264.742188 C 176.234375 265.367188 177.046875 265.734375 177.894531 265.734375 L 254.53125 265.734375 C 255.378906 265.734375 256.1875 265.367188 256.742188 264.742188 C 257.292969 264.117188 257.550781 263.234375 257.441406 262.429688 L 253.867188 236.382812 L 263.371094 236.382812 C 264.992188 236.382812 266.320312 235.058594 266.320312 233.445312 L 266.320312 106.304688 C 266.320312 105.203125 265.695312 104.171875 264.699219 103.660156 Z M 166.101562 127.648438 L 166.101562 133.523438 L 160.207031 133.523438 L 160.207031 127.648438 C 160.207031 124.414062 159.175781 121.367188 157.261719 118.832031 C 162.125 118.832031 166.101562 122.796875 166.101562 127.648438 Z M 151.367188 121.070312 C 151.476562 121.183594 151.585938 121.292969 151.734375 121.402344 C 153.390625 123.054688 154.3125 125.296875 154.3125 127.648438 L 154.3125 133.523438 L 148.417969 133.523438 L 148.417969 127.648438 C 148.417969 125.039062 149.558594 122.6875 151.367188 121.070312 Z M 136.628906 127.648438 C 136.628906 122.796875 140.605469 118.832031 145.46875 118.832031 C 143.628906 121.292969 142.523438 124.339844 142.523438 127.648438 L 142.523438 133.523438 L 136.628906 133.523438 Z M 109.695312 139.402344 L 112.863281 139.402344 L 107.335938 241.195312 L 95.65625 237.300781 Z M 113.195312 242.261719 L 118.757812 139.402344 L 142.523438 139.402344 L 142.523438 148.21875 C 142.523438 149.835938 143.847656 151.15625 145.46875 151.15625 C 147.089844 151.15625 148.417969 149.835938 148.417969 148.21875 L 148.417969 139.402344 L 166.101562 139.402344 L 166.101562 148.21875 C 166.101562 149.835938 167.429688 151.15625 169.050781 151.15625 C 170.671875 151.15625 172 149.835938 172 148.21875 L 172 139.402344 L 189.683594 139.402344 L 189.683594 195.238281 L 186.734375 195.238281 C 185.261719 195.238281 184.007812 196.339844 183.824219 197.773438 L 177.746094 242.261719 Z M 181.285156 259.894531 L 189.316406 201.117188 L 201.472656 201.117188 L 201.472656 206.996094 C 201.472656 208.609375 202.800781 209.933594 204.421875 209.933594 C 206.042969 209.933594 207.367188 208.609375 207.367188 206.996094 L 207.367188 201.117188 L 225.054688 201.117188 L 225.054688 206.996094 C 225.054688 208.609375 226.378906 209.933594 228 209.933594 C 229.621094 209.933594 230.949219 208.609375 230.949219 206.996094 L 230.949219 201.117188 L 243.109375 201.117188 L 251.140625 259.894531 Z M 207.367188 195.238281 C 207.367188 190.390625 211.347656 186.421875 216.210938 186.421875 C 221.074219 186.421875 225.054688 190.390625 225.054688 195.238281 Z M 260.425781 230.503906 L 253.09375 230.503906 L 248.632812 197.773438 C 248.449219 196.304688 247.199219 195.238281 245.722656 195.238281 L 230.984375 195.238281 C 230.984375 187.121094 224.390625 180.546875 216.25 180.546875 C 208.105469 180.546875 201.511719 187.121094 201.511719 195.238281 L 195.617188 195.238281 L 195.617188 136.464844 C 195.617188 134.847656 194.289062 133.523438 192.667969 133.523438 L 183.824219 133.523438 L 183.824219 108.105469 L 185.152344 107.441406 C 186.183594 106.929688 187.398438 106.929688 188.394531 107.441406 C 189.71875 108.105469 191.195312 108.433594 192.667969 108.433594 C 194.140625 108.433594 195.617188 108.105469 196.941406 107.441406 C 197.9375 106.929688 199.191406 106.929688 200.183594 107.441406 C 201.511719 108.105469 202.984375 108.433594 204.457031 108.433594 C 205.933594 108.433594 207.40625 108.105469 208.730469 107.441406 C 209.726562 106.929688 210.980469 106.929688 211.972656 107.441406 C 213.300781 108.105469 214.773438 108.433594 216.25 108.433594 C 217.722656 108.433594 219.195312 108.105469 220.523438 107.441406 C 221.515625 106.929688 222.769531 106.929688 223.765625 107.441406 C 225.089844 108.105469 226.566406 108.433594 228.039062 108.433594 C 229.511719 108.433594 230.984375 108.105469 232.3125 107.441406 C 233.308594 106.929688 234.558594 106.929688 235.554688 107.441406 C 236.882812 108.105469 238.355469 108.433594 239.828125 108.433594 C 241.300781 108.433594 242.777344 108.105469 244.101562 107.441406 C 245.097656 106.929688 246.351562 106.929688 247.34375 107.441406 C 248.671875 108.105469 250.144531 108.433594 251.617188 108.433594 C 253.09375 108.433594 254.566406 108.105469 255.894531 107.441406 C 256.886719 106.929688 258.140625 106.929688 259.136719 107.441406 L 260.460938 108.105469 L 260.460938 230.503906 Z M 260.425781 230.503906"></path></g><path fill="#7D0078" d="M 238.316406 115.890625 L 205.894531 115.890625 C 201.84375 115.890625 198.527344 119.199219 198.527344 123.238281 L 198.527344 126.179688 C 198.527344 130.21875 201.84375 133.523438 205.894531 133.523438 L 238.316406 133.523438 C 242.371094 133.523438 245.6875 130.21875 245.6875 126.179688 L 245.6875 123.238281 C 245.6875 119.199219 242.371094 115.890625 238.316406 115.890625 Z M 239.792969 126.179688 C 239.792969 126.984375 239.128906 127.648438 238.316406 127.648438 L 205.894531 127.648438 C 205.085938 127.648438 204.421875 126.984375 204.421875 126.179688 L 204.421875 123.238281 C 204.421875 122.429688 205.085938 121.769531 205.894531 121.769531 L 238.316406 121.769531 C 239.128906 121.769531 239.792969 122.429688 239.792969 123.238281 Z M 239.792969 126.179688"></path><path fill="#7D0078" d="M 233.269531 219.890625 C 232.277344 218.601562 230.433594 218.382812 229.144531 219.375 L 202.617188 239.945312 C 201.328125 240.9375 201.105469 242.773438 202.101562 244.058594 C 202.691406 244.796875 203.539062 245.199219 204.421875 245.199219 C 205.046875 245.199219 205.675781 245.015625 206.226562 244.574219 L 232.753906 224.003906 C 234.042969 223.011719 234.265625 221.175781 233.269531 219.890625 Z M 233.269531 219.890625"></path><path fill="#7D0078" d="M 208.84375 227.566406 C 212.894531 227.566406 216.210938 224.261719 216.210938 220.21875 C 216.210938 216.179688 212.894531 212.871094 208.84375 212.871094 C 204.789062 212.871094 201.472656 216.179688 201.472656 220.21875 C 201.472656 224.261719 204.789062 227.566406 208.84375 227.566406 Z M 208.84375 218.75 C 209.652344 218.75 210.316406 219.410156 210.316406 220.21875 C 210.316406 221.027344 209.652344 221.6875 208.84375 221.6875 C 208.03125 221.6875 207.367188 221.027344 207.367188 220.21875 C 207.367188 219.410156 208.03125 218.75 208.84375 218.75 Z M 208.84375 218.75"></path><path fill="#7D0078" d="M 226.527344 236.382812 C 222.476562 236.382812 219.160156 239.6875 219.160156 243.730469 C 219.160156 247.769531 222.476562 251.078125 226.527344 251.078125 C 230.582031 251.078125 233.898438 247.769531 233.898438 243.730469 C 233.898438 239.6875 230.582031 236.382812 226.527344 236.382812 Z M 226.527344 245.199219 C 225.71875 245.199219 225.054688 244.539062 225.054688 243.730469 C 225.054688 242.921875 225.71875 242.261719 226.527344 242.261719 C 227.339844 242.261719 228 242.921875 228 243.730469 C 228 244.539062 227.339844 245.199219 226.527344 245.199219 Z M 226.527344 245.199219"></path><g fill="#494F56"><use xmlns:xlink="http://www.w3.org/1999/xlink" x="30.22" y="90.001" xlink:href="#b" xlink:type="simple" xlink:actuate="onLoad" xlink:show="embed"></use><use xmlns:xlink="http://www.w3.org/1999/xlink" x="57.618" y="90.001" xlink:href="#c" xlink:type="simple" xlink:actuate="onLoad" xlink:show="embed"></use><use xmlns:xlink="http://www.w3.org/1999/xlink" x="85.017" y="90.001" xlink:href="#d" xlink:type="simple" xlink:actuate="onLoad" xlink:show="embed"></use></g></svg>